<svg width="202" height="127" viewBox="0 0 202 127" fill="none" xmlns="http://www.w3.org/2000/svg">
<g clip-path="url(#clip0_11368_54657)">
<path d="M94.7107 0.118744C97.6033 -0.200215 101.662 -0.0204196 105.486 2.48495L105.485 2.48593C108.574 4.50671 110.855 7.61882 111.673 11.4117C112.425 14.8718 111.85 18.147 110.935 20.8883C110.025 23.6166 108.583 26.3964 106.883 29.1988H106.884C104.144 33.7272 100.66 38.8175 96.5916 44.3287L96.5076 44.443L96.4197 44.5543L95.3885 45.8658V45.8648C89.6293 53.2164 83.0295 59.1033 75.6619 62.9615C75.6475 62.9692 75.6324 62.9763 75.618 62.984C75.6074 62.9895 75.5973 62.996 75.5867 63.0016L75.5857 63.0006C68.0121 67.0238 59.7778 69.2404 51.2088 69.5338L51.2078 69.5328C50.5657 69.561 49.9107 69.5758 49.2557 69.5758C43.623 69.5758 37.2269 68.5795 30.0496 66.7838C22.3463 64.8556 15.0951 62.4798 8.49491 59.6969L7.96952 59.4752L6.00175 58.3463L5.47734 57.9371C0.365819 53.9442 -1.95332 46.6345 1.98222 40.1402L2.1453 39.8717L2.32597 39.6148L2.56718 39.2711L2.70585 39.0728L2.85527 38.8834C6.73657 33.9232 12.711 32.6627 17.7898 33.7496V33.7486C22.5455 34.7193 27.025 34.5115 31.1238 33.2574C36.7317 31.4887 42.308 29.0112 47.659 25.8775L49.9051 24.5504C55.1543 21.4254 60.4446 18.1 65.6316 14.648C74.9412 8.44486 82.244 4.0839 87.4295 2.02304L87.5066 1.99277L87.5857 1.96249C89.2814 1.32363 91.8602 0.433129 94.7107 0.118744Z" fill="url(#paint0_radial_11368_54657)"/>
<path d="M169.688 125.881C169.226 125.881 168.848 125.734 168.554 125.44C168.26 125.146 168.113 124.768 168.113 124.306V82.7259C168.113 82.2639 168.26 81.8859 168.554 81.5919C168.848 81.2979 169.226 81.1509 169.688 81.1509H177.752C178.214 81.1509 178.592 81.2979 178.886 81.5919C179.18 81.8859 179.327 82.2639 179.327 82.7259V96.7749C180.461 95.4729 181.847 94.4439 183.485 93.6879C185.165 92.8899 187.097 92.4909 189.281 92.4909C191.717 92.4909 193.88 93.0369 195.77 94.1289C197.702 95.2209 199.214 96.8379 200.306 98.9799C201.398 101.08 201.944 103.663 201.944 106.729V124.306C201.944 124.768 201.797 125.146 201.503 125.44C201.209 125.734 200.831 125.881 200.369 125.881H192.242C191.822 125.881 191.444 125.734 191.108 125.44C190.814 125.146 190.667 124.768 190.667 124.306V107.107C190.667 105.133 190.184 103.621 189.218 102.571C188.294 101.479 186.908 100.933 185.06 100.933C183.338 100.933 181.952 101.479 180.902 102.571C179.852 103.621 179.327 105.133 179.327 107.107V124.306C179.327 124.768 179.18 125.146 178.886 125.44C178.592 125.734 178.214 125.881 177.752 125.881H169.688Z" fill="#1F0236"/>
<path d="M140.781 126.511C138.513 126.511 136.476 126.091 134.67 125.251C132.906 124.369 131.499 123.193 130.449 121.723C129.399 120.253 128.874 118.594 128.874 116.746C128.874 113.764 130.092 111.412 132.528 109.69C134.964 107.926 138.198 106.729 142.23 106.099L150.105 104.902V104.02C150.105 102.508 149.79 101.353 149.16 100.555C148.53 99.7568 147.375 99.3578 145.695 99.3578C144.519 99.3578 143.553 99.5888 142.797 100.051C142.083 100.513 141.516 101.143 141.096 101.941C140.718 102.487 140.193 102.76 139.521 102.76H132.465C132.003 102.76 131.646 102.634 131.394 102.382C131.142 102.088 131.037 101.752 131.079 101.374C131.079 100.618 131.352 99.7568 131.898 98.7908C132.486 97.7828 133.368 96.7958 134.544 95.8298C135.72 94.8638 137.232 94.0658 139.08 93.4358C140.928 92.8058 143.154 92.4908 145.758 92.4908C148.488 92.4908 150.819 92.8058 152.751 93.4358C154.683 94.0658 156.237 94.9478 157.413 96.0818C158.631 97.2158 159.534 98.5598 160.122 100.114C160.71 101.626 161.004 103.306 161.004 105.154V124.306C161.004 124.768 160.836 125.146 160.5 125.44C160.206 125.734 159.849 125.881 159.429 125.881H152.121C151.659 125.881 151.281 125.734 150.987 125.44C150.693 125.146 150.546 124.768 150.546 124.306V122.101C150 122.899 149.265 123.634 148.341 124.306C147.417 124.978 146.325 125.503 145.065 125.881C143.847 126.301 142.419 126.511 140.781 126.511ZM143.742 119.329C144.96 119.329 146.052 119.077 147.018 118.573C148.026 118.027 148.803 117.208 149.349 116.116C149.937 114.982 150.231 113.575 150.231 111.895V111.013L144.876 111.958C142.902 112.294 141.453 112.819 140.529 113.533C139.647 114.205 139.206 115.003 139.206 115.927C139.206 116.641 139.416 117.25 139.836 117.754C140.256 118.258 140.802 118.657 141.474 118.951C142.146 119.203 142.902 119.329 143.742 119.329Z" fill="#1F0236"/>
<path d="M103.431 126.511C101.415 126.511 99.5877 126.196 97.9497 125.566C96.3537 124.894 94.9677 123.928 93.7917 122.668C92.6577 121.366 91.7757 119.812 91.1457 118.006C90.5157 116.158 90.1587 114.058 90.0747 111.706C90.0327 110.866 90.0117 110.131 90.0117 109.501C90.0117 108.829 90.0327 108.094 90.0747 107.296C90.1587 105.028 90.5157 102.991 91.1457 101.185C91.7757 99.3789 92.6577 97.8249 93.7917 96.5229C94.9257 95.2209 96.3117 94.2339 97.9497 93.5619C99.5877 92.8479 101.415 92.4909 103.431 92.4909C105.531 92.4909 107.337 92.8479 108.849 93.5619C110.361 94.2339 111.642 95.1159 112.692 96.2079V82.7259C112.692 82.2639 112.839 81.8859 113.133 81.5919C113.427 81.2979 113.805 81.1509 114.267 81.1509H121.953C122.373 81.1509 122.73 81.2979 123.024 81.5919C123.36 81.8859 123.528 82.2639 123.528 82.7259V124.306C123.528 124.768 123.36 125.146 123.024 125.44C122.73 125.734 122.373 125.881 121.953 125.881H114.834C114.372 125.881 113.994 125.734 113.7 125.44C113.406 125.146 113.259 124.768 113.259 124.306V122.29C112.251 123.508 110.949 124.516 109.353 125.314C107.757 126.112 105.783 126.511 103.431 126.511ZM106.833 118.069C108.261 118.069 109.374 117.775 110.172 117.187C111.012 116.557 111.621 115.759 111.999 114.793C112.419 113.827 112.65 112.777 112.692 111.643C112.734 110.803 112.755 110.005 112.755 109.249C112.755 108.493 112.734 107.716 112.692 106.918C112.65 105.868 112.419 104.902 111.999 104.02C111.579 103.096 110.949 102.361 110.109 101.815C109.269 101.227 108.177 100.933 106.833 100.933C105.447 100.933 104.334 101.227 103.494 101.815C102.696 102.403 102.129 103.201 101.793 104.209C101.457 105.217 101.247 106.33 101.163 107.548C101.037 108.85 101.037 110.152 101.163 111.454C101.247 112.672 101.457 113.785 101.793 114.793C102.129 115.801 102.696 116.599 103.494 117.187C104.334 117.775 105.447 118.069 106.833 118.069Z" fill="#1F0236"/>
<path d="M63.8767 126.511C61.6087 126.511 59.5717 126.091 57.7657 125.251C56.0017 124.369 54.5947 123.193 53.5447 121.723C52.4947 120.253 51.9697 118.594 51.9697 116.746C51.9697 113.764 53.1877 111.412 55.6237 109.69C58.0597 107.926 61.2937 106.729 65.3257 106.099L73.2007 104.902V104.02C73.2007 102.508 72.8857 101.353 72.2557 100.555C71.6257 99.7568 70.4707 99.3578 68.7907 99.3578C67.6147 99.3578 66.6487 99.5888 65.8927 100.051C65.1787 100.513 64.6117 101.143 64.1917 101.941C63.8137 102.487 63.2887 102.76 62.6167 102.76H55.5607C55.0987 102.76 54.7417 102.634 54.4897 102.382C54.2377 102.088 54.1327 101.752 54.1747 101.374C54.1747 100.618 54.4477 99.7568 54.9937 98.7908C55.5817 97.7828 56.4637 96.7958 57.6397 95.8298C58.8157 94.8638 60.3277 94.0658 62.1757 93.4358C64.0237 92.8058 66.2497 92.4908 68.8537 92.4908C71.5837 92.4908 73.9147 92.8058 75.8467 93.4358C77.7787 94.0658 79.3327 94.9478 80.5087 96.0818C81.7267 97.2158 82.6297 98.5598 83.2177 100.114C83.8057 101.626 84.0997 103.306 84.0997 105.154V124.306C84.0997 124.768 83.9317 125.146 83.5957 125.44C83.3017 125.734 82.9447 125.881 82.5247 125.881H75.2167C74.7547 125.881 74.3767 125.734 74.0827 125.44C73.7887 125.146 73.6417 124.768 73.6417 124.306V122.101C73.0957 122.899 72.3607 123.634 71.4367 124.306C70.5127 124.978 69.4207 125.503 68.1607 125.881C66.9427 126.301 65.5147 126.511 63.8767 126.511ZM66.8377 119.329C68.0557 119.329 69.1477 119.077 70.1137 118.573C71.1217 118.027 71.8987 117.208 72.4447 116.116C73.0327 114.982 73.3267 113.575 73.3267 111.895V111.013L67.9717 111.958C65.9977 112.294 64.5487 112.819 63.6247 113.533C62.7427 114.205 62.3017 115.003 62.3017 115.927C62.3017 116.641 62.5117 117.25 62.9317 117.754C63.3517 118.258 63.8977 118.657 64.5697 118.951C65.2417 119.203 65.9977 119.329 66.8377 119.329Z" fill="#1F0236"/>
<path d="M37.6585 125.881C37.1965 125.881 36.8185 125.734 36.5245 125.44C36.2305 125.146 36.0835 124.768 36.0835 124.306V94.6958C36.0835 94.2338 36.2305 93.8558 36.5245 93.5618C36.8185 93.2678 37.1965 93.1208 37.6585 93.1208H45.0925C45.5125 93.1208 45.8695 93.2678 46.1635 93.5618C46.4995 93.8558 46.6675 94.2338 46.6675 94.6958V124.306C46.6675 124.768 46.4995 125.146 46.1635 125.44C45.8695 125.734 45.5125 125.881 45.0925 125.881H37.6585ZM37.5955 88.3958C37.1335 88.3958 36.7555 88.2488 36.4615 87.9548C36.1675 87.6608 36.0205 87.2828 36.0205 86.8208V81.2138C36.0205 80.7518 36.1675 80.3738 36.4615 80.0798C36.7555 79.7438 37.1335 79.5758 37.5955 79.5758H45.0925C45.5545 79.5758 45.9325 79.7438 46.2265 80.0798C46.5625 80.3738 46.7305 80.7518 46.7305 81.2138V86.8208C46.7305 87.2828 46.5625 87.6608 46.2265 87.9548C45.9325 88.2488 45.5545 88.3958 45.0925 88.3958H37.5955Z" fill="#1F0236"/>
<path d="M1.575 125.881C1.155 125.881 0.777 125.734 0.441 125.44C0.147 125.146 0 124.768 0 124.306V119.392C0 118.93 0.0840001 118.531 0.252 118.195C0.462 117.859 0.714 117.544 1.008 117.25L15.75 101.248H2.142C1.68 101.248 1.281 101.101 0.945 100.807C0.651 100.513 0.504 100.135 0.504 99.6729V94.6959C0.504 94.2339 0.651 93.8559 0.945 93.5619C1.281 93.2679 1.68 93.1208 2.142 93.1208H27.468C27.888 93.1208 28.245 93.2679 28.539 93.5619C28.875 93.8559 29.043 94.2339 29.043 94.6959V100.051C29.043 100.429 28.959 100.765 28.791 101.059C28.623 101.353 28.413 101.647 28.161 101.941L13.797 117.754H28.728C29.19 117.754 29.568 117.901 29.862 118.195C30.156 118.489 30.303 118.867 30.303 119.329V124.306C30.303 124.768 30.156 125.146 29.862 125.44C29.568 125.734 29.19 125.881 28.728 125.881H1.575Z" fill="#1F0236"/>
</g>
<defs>
<radialGradient id="paint0_radial_11368_54657" cx="0" cy="0" r="1" gradientTransform="matrix(71.9958 17.4584 -8.32207 41.8427 101.167 -2.3514)" gradientUnits="userSpaceOnUse">
<stop offset="0.0947095" stop-color="#EEDAFF"/>
<stop offset="0.451727" stop-color="#9821FF"/>
<stop offset="0.68458" stop-color="#480086"/>
<stop offset="1" stop-color="#07000C"/>
</radialGradient>
<clipPath id="clip0_11368_54657">
<rect width="201.944" height="126.511" fill="white"/>
</clipPath>
</defs>
</svg>
